<svg xmlns="http://www.w3.org/2000/svg" version="1.1" xmlns:xlink="http://www.w3.org/1999/xlink" xmlns:svgjs="http://svgjs.dev/svgjs" width="1000" height="1000" viewBox="0 0 1000 1000"><rect width="1000" height="1000" fill="#ffffff"></rect><g transform="matrix(0.7,0,0,0.7,150,106.25)"><svg viewBox="0 0 320 360" data-background-color="#e6b17e" preserveAspectRatio="xMidYMid meet" height="1125" width="1000" xmlns="http://www.w3.org/2000/svg" xmlns:xlink="http://www.w3.org/1999/xlink"><g id="tight-bounds" transform="matrix(1,0,0,1,0,0)"><svg viewBox="0 0 320 360" height="360" width="320"><g><svg></svg></g><g><svg viewBox="0 0 320 360" height="360" width="320"><g><path xmlns="http://www.w3.org/2000/svg" d="M219.58 41.008c0.707 0 6.365 2.829 9.547 3.89-1.061 0.354-3.536-0.707-6.365-1.768 0.707 0 2.122 0.354 3.536 1.06-0.707-0.707-6.011-2.475-6.718-3.182M166.895 30.047c1.061-0.354 13.436 1.414 19.094 1.768 0.354-0.354-0.707-0.354-2.122-0.707 1.768-0.354 5.304 0.707 7.779 1.06-7.425 0.354-15.558-1.768-22.629-1.06-2.475 0-0.707-0.707-2.122-1.061M156.641 30.047c6.365 0 11.315 0 2.121 0.707-1.061-0.354-2.475-0.354-2.121-0.707M256.707 59.395c0.707 0 3.536 3.182 4.95 4.243-0.354 0.354-3.182-2.475-4.596-3.536 0.354 0.354 0 0-0.354-0.707M249.635 54.798c-2.829-2.475-3.889-2.475-4.243-3.889 2.475 1.414 4.243 2.829 4.243 3.889M204.022 32.522c0.354-0.354 1.061 0.354 2.829 0.707-2.122-0.354-1.768 0-1.061 0.707-2.475-0.354-3.182-0.707-2.475-1.414 1.414 0.707 1.768 0.354 0.707 0M103.602 36.765c0-0.354 1.414-1.061 2.475-1.414-1.061 0.707-0.707 1.061 1.061 0.353 0 0.354-2.122 1.061-3.536 1.768 0.707-0.354 1.414-1.414 0-0.707M211.094 28.986c-1.061 0.354-4.95-1.768-8.84-2.475-2.122-0.707 8.486 1.768 8.84 2.475M2.475 203.66c2.122 8.84 0.707 8.486 0 0M2.829 150.621c0.354-1.414 0.707-5.304 1.06-4.95-1.061 8.486-2.829 12.376-3.182 18.74 1.061-5.657-0.354 3.182-0.707 5.304 0.354 2.829 0.354-1.768 1.061-1.06 0.707 1.061-1.414 15.912-0.707 7.779-0.707 7.425 0 15.558 1.414 17.679-1.768 11.315 7.072 36.773 8.84 42.077 0.354 0.354 0-1.768 0.707-0.353 0.707 4.597 3.889 7.779 4.95 12.729 1.061 1.414 5.304 9.193 6.011 10.962 1.414 2.829 2.122 2.475 3.536 5.303 4.243 8.133 10.961 15.912 17.326 23.337 20.508 24.044 51.978 43.845 86.984 50.918 35.006 7.425 71.779 2.122 100.419-11.669 1.768-1.061 1.414-1.414 3.536-2.122 9.901-3.182 21.923-13.436 28.641-17.326 3.182-3.536 11.669-9.547 12.73-13.082 6.011-4.95 12.022-13.083 15.204-18.387 1.768-2.829 3.182-2.829 3.889-4.597-0.354 0 5.657-7.425 7.426-11.668-0.707 0-1.768 2.122-1.768 0 12.729-24.398 19.801-57.282 15.911-79.912 0.707 27.934-6.365 59.05-19.801 78.851-6.011 12.729-18.387 26.519-29.701 36.42-1.768 1.768-3.536 3.889-5.658 5.304-6.718 5.657-14.144 10.254-21.922 14.497-18.387 10.254-38.895 19.094-62.94 19.447 41.37-3.536 78.497-24.398 99.006-49.856-15.558 15.204-22.276 21.215-39.602 30.055-1.414 2.475-13.083 7.425-20.862 9.547 4.597-2.122 14.144-5.657 17.326-8.486-25.812 12.376-54.453 19.448-81.326 15.558 10.254 0 24.751 0.354 38.541-2.121 2.122-0.707 3.182-1.414 5.658-1.768 26.873-6.011 52.685-19.094 71.072-37.481-10.608 9.547-26.519 20.862-36.774 24.398 9.547-5.304 26.873-15.558 32.53-23.337-11.315 11.315-32.53 22.63-45.966 27.58-2.122 0.354 1.414-1.414-2.122 0-4.243 1.061-2.475 1.061-3.536 1.768-16.265 4.597-35.006 8.486-50.563 7.072-2.829-0.354-3.889-1.061-6.365-1.061-2.829-0.354-5.304-0.354-8.486-0.354-12.376-1.414-25.812-6.365-35.713-10.607-5.304-2.475-10.608-4.243-15.912-7.426-4.243-2.475-7.779-5.304-11.314-8.132-13.436-9.901-24.751-19.801-35.36-33.945-19.094-26.519-28.994-59.757-27.58-92.641 1.414-32.884 14.497-65.061 35.359-88.752-1.061 1.061 1.414-2.475 3.536-4.596 0 0.707-0.354 1.768 2.122-0.707 2.122-2.475-0.707-0.707 0.353-2.122 21.923-24.044 60.111-43.492 99.36-44.199 1.414-1.061 3.889-2.475 6.718-1.768 0 0.354-1.768 0.354-1.768 0.354 3.889-0.354 7.425-0.354 9.193 0.353 0.354-0.354-1.414-0.707 0-0.707 2.475 0.707 3.182 0 4.597 0.707-1.061 0-2.122 0-2.829 0.354 8.84 0 14.497 2.122 23.337 2.829-4.597-1.061-5.657-1.061-9.193-2.122 3.889 0.707 5.657 1.414 7.425 1.061-0.707 0-0.354-1.061 0.354-0.707 7.072 1.768 7.779 2.475 15.204 4.95 0.707-0.707-3.182-1.061-4.243-2.122 7.072 2.475 13.436 4.243 17.68 7.072-1.414-1.061-5.657-2.475-8.84-3.889-0.354 0.354 1.061 0.707 1.414 1.414-3.536-1.768-8.486-3.536-13.436-4.243 4.243 1.061 7.072 2.475 8.84 3.182-3.889-0.707-8.84-3.182-14.498-4.243 9.193 2.829 26.519 9.193 37.127 14.851-3.889-2.475-8.486-4.243-10.961-5.657 2.122 0.354 4.597 1.768 4.597 1.06 2.475 1.061 5.657 3.536 7.425 3.89-3.182-2.122-9.547-5.304-11.668-6.365 26.519 12.022 50.21 32.177 65.414 57.989 1.414 2.475 3.536 8.133 5.304 8.84-0.354-1.768-1.768-2.829-3.182-5.657 0.707 0 0.707-1.061 0-2.122-1.414-1.768 0 1.414-1.415-0.354-6.365-11.669-14.144-21.923-26.165-33.237 6.718 6.365 1.768 1.768 0.353-0.354 9.193 8.133 19.801 21.923 24.398 28.995-0.707-1.061-1.061-1.768-0.707-1.768 8.486 14.497 13.79 27.58 19.094 46.32 0.354 0.354 0-1.414 0.707-0.353 3.536 14.851 4.597 27.227 4.243 38.541 2.829-19.094-3.536-48.796-14.851-72.133-1.414-2.829-1.414-0.707-2.829-3.889 0-1.061-1.061-3.182-1.768-4.597-14.144-23.337-31.47-39.956-51.978-53.038 1.414 0.707 4.243 2.829 4.244 2.475-38.188-25.105-82.387-28.641-118.807-20.862-2.475 1.061-3.536 2.122-6.365 3.536 5.304-1.768 8.486-2.122 13.437-3.183 1.061-1.061-4.597 0.354-2.122-0.707 0.354 0.354 4.95-0.707 6.011-0.353 0 0.354-1.414 0.707-1.768 1.06 11.669-2.475 23.691-2.829 33.945-2.121-6.011 0.354-16.972-0.707-20.508 1.061 3.536-0.354 8.486-0.707 11.668-0.354-4.243 0-12.022 0.354-15.558 0.707-0.354-0.354 5.657-1.061 1.768-1.06-1.768 0.354-4.597 0.354-5.657 1.414-30.409 2.829-60.111 18.74-80.973 37.481-4.243 3.536-9.193 7.425-12.375 11.314-7.779 8.84-12.729 17.68-18.387 25.459 3.536-7.425 11.315-18.74 20.508-28.287 9.193-9.547 19.094-17.68 24.398-21.923 0 1.414 8.486-5.304 11.669-7.425-2.122 1.768 1.414-0.707 2.121-0.354 11.315-6.718 20.508-9.193 30.763-13.083-2.475 0.707-4.597 1.414-4.951 1.061 2.475-0.707 3.889-1.414 3.536-1.768-9.901 2.829-25.459 9.547-37.834 16.972 22.276-15.204 50.564-24.398 78.497-24.751 27.934-0.707 55.16 6.365 76.729 17.68 14.497 6.365 28.287 18.033 39.249 29.348 3.182 2.829 0.707-0.707 5.304 4.243-1.414-0.707-2.475-1.414-0.707 0.707 2.829 3.182-0.707-2.475 3.889 3.182-0.354 0-1.768-1.768-1.768-1.061 12.376 10.961 21.923 30.762 27.58 43.846-1.414-5.304-4.95-12.729-7.779-18.033 8.486 15.558 11.315 24.751 14.851 38.541 1.414 1.061-0.707-4.95 0.707-2.121 0.354 2.122 0.707 8.84 2.122 9.9-1.061-6.718-2.829-14.851-4.243-16.265 1.061 0.707-1.768-8.133-3.536-10.254-0.707-5.657-5.657-15.558-9.901-22.984-15.204-29.702-42.431-54.099-72.839-67.536 0-0.707-1.768-1.414-2.476-2.121-30.055-12.729-66.122-16.265-100.773-8.133-35.006 8.486-67.889 28.641-91.227 57.636 1.061-3.536 9.901-10.254 10.255-13.083-10.254 10.961-21.215 25.459-28.641 41.016-7.779 15.558-12.022 31.47-13.79 43.138" fill="#000000" fill-rule="nonzero" stroke="none" stroke-width="1" stroke-linecap="butt" stroke-linejoin="miter" stroke-miterlimit="10" stroke-dasharray="" stroke-dashoffset="0" font-family="none" font-weight="none" font-size="none" text-anchor="none" style="mix-blend-mode: normal" data-fill-palette-color="tertiary"></path></g><g transform="matrix(1,0,0,1,70,90)"><svg viewBox="0 0 180 180" height="180" width="180"><g><svg viewBox="0 0 180 180" height="180" width="180"><g><svg viewBox="0 0 180 180" height="180" width="180"><g id="textblocktransform"><svg viewBox="0 0 180 180" height="180" width="180" id="textblock"><g><svg viewBox="0 0 180 180" height="180" width="180"><g transform="matrix(1,0,0,1,36.966991411008934,36.966991411008934)"><svg viewBox="0 0 106.06601717798213 106.06601717798213" height="106.06601717798213" width="106.06601717798213"><g><circle r="53" cx="53.033008588991066" cy="53.033008588991066" fill="#000000" data-fill-palette-color="accent"></circle><svg xmlns="http://www.w3.org/2000/svg" xmlns:xlink="http://www.w3.org/1999/xlink" version="1.1" x="15.90990257669732" y="15.90990257669732" viewBox="4.999734878540039 20.62799835205078 90.0029296875 58.74500274658203" enable-background="new 0 0 100 100" xml:space="preserve" height="74.24621202458749" width="74.24621202458749" class="icon-o-0" data-fill-palette-color="quaternary" id="o-0"><g fill="#e6b17e" data-fill-palette-color="quaternary"><path fill="#ffffff" d="M91.813 58.801c-1.81-1.615-4.104-2.929-5.89-3.823-1.628-0.81-2.833-1.274-2.856-1.284-2.775-0.978-3.767-1.973-4.108-2.636l-0.14-0.4c-0.039-0.141-0.073-0.274-0.106-0.401l-0.337-1.896-0.009-0.091c0.917-1.173 1.665-2.521 2.164-3.9l0.069-0.106c0.791-0.79 1.219-2.792 1.221-2.811 0.581-1.628 0.364-2.337 0.185-2.622l-0.074-0.116 0.043-0.13c0.059-0.176 1.422-4.35-0.46-7.531l-0.033-0.084c-0.006-0.028-0.709-2.968-4.158-4.27-1.3-0.788-3.473-1.177-5.44-1.177-0.058 0-0.114 0.001-0.171 0.002-0.058 0-0.114-0.002-0.173-0.002-1.967 0-4.141 0.389-5.439 1.177-3.449 1.302-4.153 4.241-4.159 4.27l-0.032 0.084c-1.883 3.181-0.52 7.355-0.461 7.531l0.043 0.13-0.073 0.116c-0.181 0.285-0.397 0.994 0.184 2.622 0.003 0.02 0.431 2.021 1.222 2.811l0.069 0.106c0.498 1.379 1.246 2.727 2.163 3.9l-0.008 0.091-0.337 1.896c-0.033 0.127-0.067 0.26-0.107 0.401l-0.139 0.4c-0.343 0.663-1.333 1.658-4.109 2.636-0.023 0.01-1.229 0.475-2.855 1.284-0.813 0.407-1.732 0.905-2.663 1.476 1.325 0.848 2.494 1.719 3.494 2.605 0.765 0.611 4.873 4.312 4.501 12.988-0.023 0.647-0.071 1.273-0.143 1.912 2.598 0.311 5.484 0.519 8.563 0.519 0.151 0 0.307-0.004 0.459-0.005 0.152 0.001 0.308 0.005 0.459 0.005 12.182 0 21.37-3.252 21.457-3.284 1.06-0.329 1.236-0.771 1.236-1.32 0.063-0.544 0.102-1.061 0.12-1.561C95.277 61.42 91.853 58.829 91.813 58.801z" data-fill-palette-color="quaternary"></path><path fill="#ffffff" d="M57.073 60.562c-2.172-1.938-4.925-3.515-7.069-4.589-1.953-0.971-3.399-1.529-3.427-1.541-3.331-1.172-4.521-2.367-4.931-3.163l-0.167-0.479c-0.047-0.169-0.089-0.328-0.128-0.48l-0.405-2.275-0.01-0.109c1.101-1.408 1.999-3.025 2.597-4.68l0.083-0.127c0.949-0.949 1.463-3.35 1.466-3.374 0.697-1.954 0.437-2.805 0.221-3.146l-0.088-0.14 0.051-0.156c0.071-0.211 1.707-5.22-0.551-9.037l-0.041-0.101c-0.007-0.034-0.851-3.562-4.99-5.124-1.559-0.945-4.167-1.413-6.528-1.413-0.07 0-0.137 0.001-0.206 0.002-0.069 0-0.137-0.002-0.207-0.002-2.36 0-4.969 0.466-6.527 1.413-4.14 1.563-4.984 5.089-4.991 5.124l-0.04 0.101c-2.259 3.817-0.623 8.826-0.552 9.037l0.051 0.156-0.088 0.14c-0.216 0.341-0.477 1.192 0.221 3.146 0.002 0.023 0.516 2.425 1.465 3.374l0.084 0.127c0.598 1.655 1.496 3.271 2.596 4.68l-0.01 0.109-0.405 2.275c-0.04 0.153-0.081 0.311-0.128 0.48l-0.167 0.479c-0.411 0.796-1.6 1.991-4.931 3.163-0.028 0.012-1.475 0.57-3.427 1.541-2.144 1.074-4.896 2.65-7.068 4.589C8.78 60.595 4.67 63.704 5.021 71.975c0.023 0.602 0.068 1.22 0.144 1.873 0 0.66 0.211 1.188 1.484 1.585 0.104 0.04 11.131 3.94 25.748 3.94 0.182 0 0.367-0.005 0.551-0.006 0.183 0.001 0.369 0.006 0.551 0.006 14.618 0 25.644-3.901 25.748-3.94 1.271-0.396 1.483-0.925 1.483-1.585 0.077-0.653 0.122-1.271 0.145-1.873C61.229 63.704 57.119 60.595 57.073 60.562z" data-fill-palette-color="quaternary"></path></g></svg></g></svg></g><g><path d="M25.186 126.657L15.968 130.219C15.449 130.42 15.042 130.61 14.745 130.789 14.446 130.962 14.242 131.159 14.134 131.381 14.025 131.602 13.993 131.873 14.038 132.193 14.083 132.513 14.191 132.913 14.362 133.392V133.392L13.584 133.693 11.032 127.088 11.809 126.787C12.005 127.257 12.194 127.626 12.376 127.893 12.558 128.16 12.762 128.343 12.987 128.443 13.212 128.542 13.486 128.562 13.807 128.502 14.126 128.437 14.523 128.312 14.998 128.128V128.128L19.42 126.419 16.23 118.166 11.948 119.821C11.43 120.021 11.022 120.211 10.726 120.39 10.426 120.563 10.223 120.76 10.114 120.982 10.006 121.203 9.974 121.474 10.019 121.794 10.064 122.114 10.172 122.514 10.343 122.993V122.993L9.565 123.294 7.012 116.689 7.79 116.389C7.986 116.858 8.175 117.227 8.357 117.494 8.539 117.761 8.743 117.944 8.968 118.044 9.193 118.143 9.467 118.163 9.788 118.104 10.107 118.038 10.504 117.913 10.979 117.73V117.73L20.478 114.058C20.953 113.875 21.329 113.704 21.605 113.547 21.879 113.384 22.073 113.198 22.186 112.989 22.299 112.78 22.335 112.529 22.294 112.236 22.25 111.938 22.157 111.568 22.016 111.127V111.127L22.793 110.827 25.187 117.019 24.409 117.32C24.23 116.894 24.054 116.559 23.882 116.317 23.712 116.082 23.512 115.926 23.281 115.85 23.051 115.774 22.771 115.774 22.442 115.851 22.11 115.922 21.685 116.057 21.167 116.258V116.258L17.251 117.771 20.441 126.025 24.497 124.457C24.972 124.273 25.348 124.103 25.624 123.946 25.899 123.783 26.092 123.596 26.205 123.388 26.321 123.185 26.357 122.934 26.313 122.635 26.269 122.336 26.177 121.967 26.035 121.526V121.526L26.813 121.226 29.21 127.427 28.432 127.728C28.251 127.296 28.074 126.958 27.901 126.716 27.731 126.481 27.531 126.325 27.3 126.249 27.07 126.173 26.79 126.173 26.461 126.25 26.129 126.321 25.704 126.456 25.186 126.657ZM24.514 143.053L25.933 140.966 22.583 136.188C21.953 136.327 21.399 136.458 20.921 136.58 20.448 136.699 20.042 136.808 19.702 136.907 19.367 137.012 19.092 137.115 18.877 137.216 18.658 137.312 18.488 137.403 18.367 137.487V137.487C18.033 137.722 17.88 137.988 17.91 138.287 17.933 138.589 18.122 138.992 18.476 139.497V139.497L17.793 139.975 14.743 135.624 15.426 135.146C15.651 135.397 15.863 135.6 16.062 135.755 16.26 135.91 16.466 136.023 16.68 136.095 16.888 136.17 17.12 136.203 17.376 136.195 17.627 136.191 17.914 136.153 18.24 136.08V136.08L33.157 132.566 33.699 133.339 26.447 144.481C25.971 145.225 25.606 145.836 25.353 146.315 25.095 146.799 24.932 147.208 24.864 147.542 24.795 147.876 24.808 148.174 24.901 148.435 24.995 148.697 25.151 148.984 25.37 149.296V149.296L24.671 149.787 20.578 143.947 21.277 143.457C21.719 144.088 22.085 144.481 22.374 144.638 22.659 144.799 22.938 144.783 23.212 144.591V144.591C23.333 144.506 23.439 144.419 23.532 144.33 23.623 144.249 23.719 144.153 23.821 144.041 23.918 143.924 24.022 143.786 24.131 143.627 24.245 143.474 24.372 143.283 24.513 143.053ZM30.478 134.309L23.734 135.921 26.593 140ZM37.187 161.845L36.23 160.957 37.93 143.858 37.864 143.797 31.51 150.644C31.018 151.174 30.646 151.614 30.394 151.964 30.141 152.306 29.992 152.614 29.945 152.891 29.903 153.163 29.96 153.421 30.116 153.666 30.277 153.916 30.522 154.203 30.852 154.527V154.527L30.285 155.138 25.978 151.142 26.545 150.53C26.927 150.867 27.261 151.113 27.546 151.268 27.832 151.423 28.111 151.481 28.384 151.443 28.662 151.399 28.96 151.25 29.277 150.997 29.59 150.739 29.978 150.36 30.443 149.859V149.859L36.483 143.351C36.897 142.904 37.224 142.518 37.463 142.191 37.697 141.861 37.837 141.557 37.883 141.28 37.93 141.004 37.88 140.733 37.732 140.469 37.58 140.199 37.344 139.898 37.023 139.564V139.564L37.59 138.953 40.763 141.898 39.095 157.737 39.161 157.799 45.023 151.482C45.506 150.962 45.873 150.527 46.126 150.176 46.382 149.82 46.534 149.504 46.581 149.228 46.628 148.961 46.571 148.702 46.41 148.453 46.254 148.207 46.008 147.92 45.674 147.592V147.592L46.241 146.981 50.555 150.984 49.988 151.595C49.601 151.254 49.267 151.009 48.987 150.858 48.701 150.703 48.422 150.645 48.149 150.683 47.871 150.727 47.571 150.878 47.249 151.136 46.927 151.394 46.538 151.769 46.083 152.26V152.26ZM49.123 169.08L41.663 164.907 42.07 164.18C42.556 164.436 42.967 164.62 43.304 164.732 43.631 164.846 43.922 164.867 44.178 164.795 44.429 164.729 44.661 164.574 44.874 164.333 45.082 164.096 45.316 163.748 45.574 163.286V163.286L50.547 154.398C50.795 153.954 50.973 153.581 51.08 153.281 51.192 152.983 51.226 152.718 51.18 152.485 51.134 152.252 50.998 152.034 50.774 151.832 50.555 151.633 50.248 151.407 49.852 151.155V151.155L50.259 150.428 56.956 154.174C58.101 154.815 59.055 155.598 59.819 156.524 60.573 157.452 61.116 158.45 61.447 159.518 61.778 160.585 61.879 161.693 61.751 162.842 61.628 163.993 61.262 165.115 60.65 166.208V166.208C60.065 167.254 59.345 168.109 58.49 168.774 57.628 169.435 56.69 169.892 55.674 170.145 54.661 170.391 53.592 170.43 52.467 170.261 51.342 170.092 50.227 169.698 49.122 169.08ZM56.396 155.092L53.968 153.734C53.752 153.613 53.583 153.661 53.462 153.877V153.877L47.69 164.194C46.88 165.643 47.424 166.899 49.323 167.961V167.961C51.064 168.935 52.689 169.165 54.197 168.651 55.704 168.136 57.021 166.874 58.145 164.864V164.864C58.737 163.806 59.136 162.79 59.343 161.817 59.553 160.852 59.579 159.95 59.42 159.109 59.261 158.268 58.931 157.508 58.429 156.828 57.927 156.148 57.249 155.57 56.396 155.092ZM68.104 163.898L65.258 171.99C65.018 172.672 64.855 173.225 64.77 173.649 64.681 174.065 64.676 174.411 64.756 174.688 64.839 174.958 65.016 175.18 65.288 175.354 65.561 175.528 65.935 175.706 66.41 175.887V175.887L66.134 176.673 59.454 174.324 59.731 173.537C60.215 173.694 60.619 173.786 60.943 173.815 61.266 173.843 61.546 173.785 61.781 173.641 62.019 173.49 62.233 173.236 62.423 172.877 62.607 172.515 62.812 172.013 63.038 171.368V171.368L65.985 162.993C66.187 162.418 66.333 161.933 66.422 161.539 66.504 161.142 66.512 160.808 66.445 160.535 66.377 160.263 66.223 160.035 65.983 159.851 65.736 159.665 65.399 159.483 64.972 159.304V159.304L65.248 158.518 71.511 160.721 71.235 161.507C70.794 161.366 70.422 161.296 70.117 161.295 69.818 161.296 69.556 161.385 69.331 161.561 69.106 161.738 68.901 162.017 68.717 162.399 68.526 162.78 68.322 163.279 68.104 163.898ZM84.985 164.49L85.615 163.227 86.218 163.337 85.499 168.321 84.708 168.176C84.624 166.854 84.196 165.751 83.425 164.868 82.655 163.985 81.63 163.426 80.353 163.192V163.192C79.477 163.032 78.664 163.063 77.915 163.287 77.161 163.503 76.488 163.89 75.895 164.448 75.303 165.007 74.796 165.728 74.376 166.61 73.954 167.5 73.636 168.531 73.421 169.703V169.703C72.998 172.015 73.153 173.878 73.888 175.292 74.623 176.707 75.899 177.58 77.717 177.913V177.913C80.483 178.42 82.531 177.277 83.859 174.484V174.484L84.738 174.645 83.757 180 83.007 179.862 82.824 178.073C81.088 179.075 79.15 179.381 77.01 178.989V178.989C75.791 178.765 74.727 178.37 73.817 177.801 72.907 177.233 72.171 176.53 71.61 175.692 71.04 174.859 70.658 173.897 70.463 172.806 70.274 171.723 70.294 170.556 70.523 169.305V169.305C70.762 168.001 71.18 166.849 71.779 165.849 72.371 164.848 73.1 164.025 73.967 163.38 74.833 162.742 75.812 162.302 76.904 162.06 77.989 161.823 79.141 161.816 80.359 162.04V162.04C81.222 162.198 82.01 162.468 82.723 162.85 83.442 163.234 84.196 163.78 84.985 164.49ZM95.788 162.447V162.447C97.065 162.378 98.271 162.541 99.406 162.935 100.533 163.324 101.526 163.89 102.385 164.635 103.243 165.373 103.931 166.261 104.45 167.299 104.976 168.337 105.272 169.474 105.339 170.711V170.711C105.402 171.888 105.225 173.007 104.806 174.069 104.394 175.124 103.801 176.058 103.027 176.871 102.252 177.678 101.322 178.332 100.236 178.833 99.157 179.341 97.986 179.629 96.722 179.697V179.697C95.452 179.766 94.253 179.606 93.126 179.218 91.992 178.837 90.997 178.287 90.14 177.569 89.289 176.844 88.598 175.979 88.068 174.975 87.537 173.965 87.24 172.871 87.176 171.694V171.694C87.109 170.458 87.281 169.295 87.691 168.206 88.095 167.118 88.684 166.161 89.457 165.335 90.23 164.502 91.159 163.831 92.245 163.323 93.324 162.809 94.505 162.517 95.788 162.447ZM96.657 178.494V178.494C97.613 178.442 98.463 178.228 99.207 177.853 99.958 177.477 100.587 176.96 101.095 176.302 101.61 175.651 101.99 174.869 102.235 173.957 102.474 173.046 102.564 172.038 102.504 170.935V170.935C102.441 169.765 102.24 168.72 101.902 167.799 101.557 166.879 101.096 166.103 100.519 165.47 99.948 164.837 99.268 164.361 98.48 164.042 97.685 163.729 96.81 163.599 95.854 163.651V163.651C94.891 163.703 94.035 163.927 93.285 164.323 92.529 164.726 91.901 165.273 91.402 165.964 90.897 166.655 90.525 167.476 90.288 168.428 90.045 169.38 89.955 170.441 90.018 171.611V171.611C90.078 172.714 90.279 173.706 90.622 174.586 90.958 175.466 91.413 176.203 91.989 176.795 92.558 177.395 93.239 177.84 94.033 178.133 94.82 178.425 95.694 178.546 96.657 178.494ZM123.89 173.696L122.644 174.085 108.646 164.12 108.559 164.147 111.348 173.062C111.563 173.752 111.761 174.294 111.94 174.687 112.111 175.075 112.304 175.358 112.521 175.536 112.736 175.707 112.989 175.786 113.279 175.773 113.576 175.757 113.947 175.686 114.392 175.561V175.561L114.641 176.357 109.033 178.111 108.784 177.315C109.266 177.151 109.645 176.983 109.921 176.812 110.198 176.642 110.387 176.428 110.489 176.172 110.589 175.909 110.608 175.577 110.546 175.175 110.477 174.776 110.341 174.25 110.137 173.598V173.598L107.486 165.125C107.305 164.543 107.131 164.067 106.967 163.698 106.796 163.331 106.602 163.058 106.385 162.88 106.168 162.703 105.908 162.612 105.605 162.609 105.296 162.607 104.917 162.662 104.468 162.775V162.775L104.219 161.979 108.351 160.687 121.271 170 121.358 169.973 118.785 161.748C118.573 161.071 118.378 160.536 118.199 160.143 118.018 159.743 117.819 159.455 117.602 159.277 117.393 159.104 117.141 159.025 116.844 159.041 116.553 159.054 116.183 159.125 115.731 159.252V159.252L115.482 158.456 121.1 156.699 121.349 157.495C120.86 157.662 120.481 157.829 120.211 157.998 119.935 158.169 119.746 158.382 119.644 158.639 119.543 158.901 119.526 159.237 119.59 159.645 119.654 160.052 119.787 160.576 119.986 161.215V161.215ZM142.282 163.386L141.166 164.063 125.186 157.747 125.108 157.794 129.954 165.78C130.329 166.398 130.651 166.876 130.919 167.215 131.178 167.551 131.434 167.78 131.687 167.9 131.937 168.015 132.201 168.031 132.48 167.948 132.764 167.861 133.107 167.704 133.509 167.476V167.476L133.942 168.188 128.919 171.237 128.486 170.524C128.914 170.249 129.242 169.995 129.469 169.763 129.697 169.531 129.829 169.278 129.867 169.005 129.901 168.725 129.84 168.399 129.683 168.024 129.52 167.653 129.262 167.175 128.907 166.591V166.591L124.301 159.001C123.985 158.48 123.703 158.06 123.454 157.741 123.2 157.425 122.946 157.207 122.693 157.086 122.44 156.966 122.166 156.94 121.871 157.01 121.571 157.082 121.216 157.227 120.807 157.444V157.444L120.375 156.731 124.075 154.485 138.853 160.426 138.93 160.379 134.46 153.012C134.092 152.406 133.773 151.933 133.505 151.594 133.234 151.25 132.971 151.018 132.718 150.897 132.474 150.779 132.21 150.763 131.926 150.85 131.647 150.932 131.304 151.09 130.896 151.321V151.321L130.464 150.609 135.495 147.555 135.928 148.268C135.494 148.547 135.166 148.801 134.945 149.029 134.717 149.261 134.585 149.514 134.547 149.787 134.513 150.067 134.576 150.396 134.736 150.777 134.897 151.157 135.151 151.634 135.498 152.206V152.206ZM139.159 145.446L143.491 149.975C144.057 149.433 144.502 148.943 144.824 148.505 145.141 148.072 145.344 147.674 145.433 147.311 145.517 146.943 145.498 146.595 145.378 146.265 145.252 145.941 145.039 145.621 144.738 145.307V145.307L145.29 144.779 149.414 149.09 148.863 149.617C148.562 149.303 148.257 149.071 147.947 148.922 147.633 148.778 147.293 148.737 146.927 148.8 146.552 148.863 146.133 149.041 145.672 149.334 145.211 149.617 144.686 150.041 144.095 150.606V150.606L147.511 154.177C147.845 154.525 148.161 154.773 148.461 154.922 148.766 155.066 149.087 155.111 149.424 155.057 149.766 154.998 150.132 154.838 150.522 154.577 150.916 154.311 151.36 153.942 151.853 153.47V153.47C152.415 152.933 152.852 152.441 153.165 151.993 153.482 151.541 153.682 151.095 153.762 150.656 153.843 150.208 153.813 149.755 153.672 149.298 153.535 148.835 153.298 148.321 152.96 147.755V147.755L153.555 147.185 156.302 150.521 146.49 159.908 145.913 159.306C146.272 158.944 146.539 158.628 146.716 158.357 146.892 158.086 146.983 157.828 146.989 157.582 146.994 157.336 146.907 157.076 146.729 156.802 146.545 156.532 146.278 156.214 145.926 155.846V155.846L138.886 148.487C138.534 148.12 138.232 147.838 137.981 147.643 137.724 147.453 137.478 147.346 137.242 147.321 137.006 147.297 136.76 147.361 136.506 147.511 136.247 147.667 135.941 147.894 135.589 148.194V148.194L135.013 147.592 144.142 138.857 146.939 141.505 146.388 142.033C145.922 141.672 145.492 141.426 145.097 141.294 144.693 141.162 144.291 141.134 143.891 141.21 143.496 141.291 143.08 141.481 142.643 141.779 142.2 142.082 141.711 142.49 141.173 143.004V143.004L139.17 144.92C138.991 145.092 138.988 145.267 139.159 145.446ZM153.487 127.733L152.596 126.639 152.945 126.135 157.19 128.844 156.732 129.505C155.492 129.037 154.311 128.972 153.189 129.31 152.066 129.648 151.135 130.351 150.396 131.419V131.419C149.888 132.151 149.582 132.904 149.477 133.679 149.363 134.455 149.438 135.228 149.703 135.998 149.968 136.768 150.416 137.527 151.047 138.274 151.684 139.024 152.492 139.739 153.472 140.418V140.418C155.403 141.756 157.165 142.382 158.756 142.296 160.348 142.209 161.67 141.406 162.722 139.887V139.887C164.324 137.576 164.126 135.239 162.129 132.878V132.878L162.638 132.143 167.113 135.244 166.678 135.871 164.972 135.3C165.171 137.294 164.65 139.186 163.411 140.975V140.975C162.705 141.993 161.906 142.8 161.013 143.395 160.12 143.99 159.176 144.37 158.181 144.536 157.188 144.712 156.155 144.664 155.08 144.392 154.015 144.118 152.96 143.619 151.914 142.894V142.894C150.825 142.139 149.947 141.283 149.283 140.326 148.615 139.374 148.166 138.37 147.936 137.315 147.711 136.263 147.714 135.19 147.943 134.094 148.174 133.008 148.643 131.956 149.348 130.938V130.938C149.848 130.217 150.419 129.611 151.061 129.119 151.707 128.621 152.516 128.159 153.487 127.733ZM158.861 110.922L162.824 112.266 162.492 113.096C161.89 112.906 161.364 112.808 160.912 112.8 160.461 112.793 160.069 112.882 159.736 113.066 159.4 113.257 159.101 113.545 158.839 113.93 158.58 114.31 158.333 114.792 158.1 115.377V115.377C157.901 115.874 157.751 116.279 157.648 116.591 157.545 116.903 157.489 117.151 157.48 117.335 157.472 117.519 157.492 117.65 157.54 117.727 157.595 117.806 157.685 117.871 157.809 117.921V117.921L168.677 122.258C169.106 122.429 169.488 122.546 169.824 122.608 170.16 122.669 170.463 122.65 170.734 122.549 171.001 122.439 171.256 122.235 171.498 121.935 171.737 121.626 171.975 121.191 172.213 120.631V120.631L172.988 120.94 169.924 128.617 169.149 128.308C169.365 127.731 169.493 127.248 169.532 126.86 169.568 126.463 169.526 126.136 169.405 125.879 169.28 125.613 169.075 125.387 168.789 125.201 168.5 125.021 168.141 124.845 167.712 124.674V124.674L156.845 120.337C156.72 120.287 156.612 120.269 156.52 120.283 156.432 120.305 156.331 120.377 156.218 120.498 156.105 120.618 155.989 120.802 155.868 121.05 155.748 121.297 155.601 121.639 155.427 122.074V122.074C155.216 122.603 155.039 123.102 154.895 123.57 154.757 124.042 154.719 124.481 154.78 124.887 154.848 125.296 155.042 125.684 155.365 126.051 155.687 126.417 156.206 126.751 156.923 127.051V127.051L156.625 127.797 152.744 126.248Z" fill="#000000" data-fill-palette-color="primary"></path><path d="M10.291 52.945L19.509 56.508C20.027 56.708 20.457 56.842 20.797 56.909 21.135 56.982 21.418 56.973 21.647 56.882 21.876 56.791 22.082 56.612 22.264 56.345 22.446 56.078 22.635 55.71 22.831 55.24V55.24L23.609 55.54 21.056 62.145 20.278 61.844C20.449 61.365 20.557 60.965 20.602 60.645 20.647 60.325 20.619 60.052 20.52 59.827 20.42 59.602 20.231 59.403 19.953 59.231 19.673 59.066 19.295 58.891 18.82 58.707V58.707L14.398 56.998 11.208 65.252 15.49 66.907C16.008 67.107 16.438 67.241 16.778 67.308 17.116 67.381 17.399 67.372 17.628 67.281 17.857 67.19 18.063 67.011 18.245 66.744 18.427 66.477 18.616 66.108 18.812 65.639V65.639L19.589 65.939 17.037 72.544 16.259 72.243C16.43 71.764 16.538 71.364 16.583 71.044 16.627 70.724 16.6 70.451 16.5 70.226 16.401 70.001 16.212 69.802 15.934 69.63 15.653 69.464 15.276 69.29 14.801 69.106V69.106L5.302 65.435C4.827 65.251 4.434 65.125 4.124 65.055 3.811 64.991 3.543 64.999 3.318 65.077 3.094 65.156 2.899 65.317 2.733 65.562 2.564 65.812 2.384 66.148 2.193 66.57V66.57L1.415 66.269 3.808 60.077 4.586 60.377C4.432 60.813 4.337 61.178 4.302 61.474 4.27 61.762 4.313 62.012 4.432 62.224 4.552 62.435 4.759 62.623 5.054 62.787 5.347 62.958 5.753 63.143 6.271 63.344V63.344L10.187 64.857 13.377 56.604 9.321 55.036C8.846 54.852 8.454 54.726 8.143 54.656 7.83 54.593 7.562 54.6 7.338 54.679 7.116 54.751 6.921 54.912 6.752 55.163 6.583 55.414 6.403 55.75 6.212 56.171V56.171L5.434 55.87 7.831 49.669 8.609 49.969C8.452 50.411 8.356 50.78 8.321 51.075 8.289 51.364 8.332 51.614 8.451 51.825 8.571 52.036 8.778 52.224 9.073 52.388 9.366 52.559 9.772 52.745 10.29 52.945ZM27.099 44.365L24.653 43.742 21.304 48.52C21.649 49.065 21.961 49.541 22.24 49.949 22.513 50.353 22.754 50.698 22.962 50.983 23.175 51.263 23.366 51.487 23.535 51.654 23.7 51.827 23.842 51.956 23.963 52.04V52.04C24.298 52.275 24.6 52.327 24.871 52.198 25.147 52.073 25.461 51.758 25.815 51.253V51.253L26.498 51.732 23.448 56.082 22.765 55.604C22.924 55.307 23.043 55.038 23.121 54.799 23.199 54.559 23.235 54.327 23.229 54.102 23.229 53.881 23.181 53.651 23.087 53.413 22.997 53.179 22.863 52.921 22.684 52.64V52.64L14.293 39.816 14.835 39.043 27.783 42.06C28.644 42.254 29.343 42.389 29.88 42.463 30.422 42.54 30.862 42.554 31.2 42.505 31.537 42.455 31.813 42.342 32.027 42.165 32.241 41.987 32.457 41.743 32.677 41.43V41.43L33.376 41.92 29.282 47.759 28.583 47.269C29.025 46.639 29.27 46.161 29.319 45.835 29.373 45.513 29.263 45.256 28.989 45.064V45.064C28.868 44.979 28.75 44.909 28.634 44.852 28.528 44.794 28.405 44.736 28.265 44.679 28.121 44.627 27.956 44.577 27.77 44.528 27.587 44.474 27.363 44.419 27.099 44.365ZM16.845 41.739L20.661 47.53 23.52 43.451ZM44.586 32.027L43.629 32.916 26.705 29.945 26.639 30.007 32.992 36.854C33.484 37.384 33.896 37.788 34.226 38.065 34.548 38.343 34.844 38.515 35.117 38.582 35.385 38.644 35.647 38.606 35.903 38.469 36.164 38.327 36.468 38.104 36.816 37.8V37.8L37.383 38.411 33.076 42.407 32.509 41.796C32.873 41.44 33.143 41.126 33.319 40.853 33.495 40.58 33.574 40.306 33.556 40.03 33.533 39.75 33.407 39.442 33.178 39.106 32.944 38.775 32.595 38.36 32.13 37.859V37.859L26.091 31.351C25.676 30.904 25.315 30.55 25.008 30.287 24.695 30.029 24.403 29.867 24.13 29.8 23.858 29.733 23.585 29.763 23.31 29.89 23.03 30.021 22.712 30.235 22.355 30.529V30.529L21.788 29.918 24.961 26.974 40.632 29.819 40.698 29.757 34.836 23.441C34.354 22.92 33.947 22.521 33.616 22.244 33.281 21.961 32.977 21.786 32.705 21.719 32.442 21.653 32.18 21.69 31.919 21.832 31.662 21.969 31.358 22.193 31.005 22.502V22.502L30.438 21.891 34.752 17.887 35.32 18.498C34.951 18.859 34.681 19.173 34.51 19.441 34.334 19.714 34.255 19.989 34.273 20.264 34.296 20.545 34.424 20.855 34.657 21.195 34.891 21.536 35.236 21.951 35.691 22.442V22.442ZM53.996 26.087L46.537 30.26 46.13 29.533C46.603 29.253 46.975 28.999 47.246 28.77 47.515 28.551 47.685 28.314 47.757 28.059 47.832 27.809 47.822 27.531 47.727 27.224 47.635 26.922 47.46 26.541 47.202 26.079V26.079L42.229 17.191C41.981 16.747 41.756 16.401 41.556 16.152 41.361 15.9 41.153 15.733 40.93 15.651 40.708 15.568 40.451 15.57 40.162 15.655 39.878 15.737 39.525 15.881 39.102 16.086V16.086L38.695 15.359 45.392 11.612C46.537 10.972 47.704 10.568 48.893 10.402 50.078 10.245 51.213 10.305 52.296 10.581 53.379 10.857 54.376 11.351 55.287 12.061 56.204 12.768 56.969 13.667 57.58 14.76V14.76C58.165 15.806 58.517 16.867 58.636 17.944 58.749 19.024 58.648 20.063 58.331 21.061 58.012 22.053 57.485 22.984 56.753 23.855 56.02 24.725 55.101 25.469 53.996 26.087ZM45.882 12.57L43.454 13.928C43.237 14.049 43.19 14.218 43.311 14.434V14.434L49.083 24.751C49.893 26.2 51.248 26.393 53.147 25.331V25.331C54.889 24.356 55.935 23.092 56.285 21.538 56.636 19.984 56.249 18.202 55.124 16.192V16.192C54.532 15.134 53.876 14.262 53.154 13.576 52.442 12.893 51.686 12.399 50.887 12.094 50.087 11.79 49.266 11.674 48.424 11.746 47.582 11.818 46.735 12.092 45.882 12.57ZM62.734 8.117L65.58 16.208C65.82 16.89 66.04 17.424 66.239 17.808 66.429 18.188 66.642 18.461 66.878 18.626 67.111 18.786 67.389 18.848 67.71 18.813 68.031 18.778 68.434 18.682 68.919 18.526V18.526L69.195 19.312 62.516 21.662 62.239 20.876C62.715 20.694 63.088 20.513 63.358 20.333 63.628 20.153 63.81 19.933 63.903 19.673 63.994 19.407 64.001 19.074 63.925 18.675 63.842 18.278 63.687 17.758 63.46 17.114V17.114L60.514 8.738C60.312 8.163 60.122 7.694 59.945 7.331 59.761 6.969 59.557 6.704 59.334 6.534 59.111 6.364 58.848 6.283 58.546 6.29 58.237 6.299 57.86 6.368 57.415 6.496V6.496L57.138 5.709 63.401 3.506 63.678 4.293C63.246 4.459 62.911 4.637 62.673 4.827 62.441 5.015 62.293 5.248 62.227 5.527 62.162 5.805 62.177 6.151 62.273 6.565 62.363 6.981 62.516 7.498 62.734 8.117ZM80.712 1.515L80.853 0.11 81.456 0 82.55 4.915 81.76 5.06C81.212 3.853 80.421 2.974 79.387 2.421 78.354 1.868 77.198 1.709 75.92 1.943V1.943C75.044 2.104 74.296 2.421 73.675 2.896 73.046 3.365 72.553 3.966 72.198 4.698 71.842 5.43 71.623 6.284 71.543 7.258 71.464 8.239 71.532 9.316 71.747 10.488V10.488C72.17 12.8 72.976 14.487 74.165 15.549 75.353 16.611 76.856 16.976 78.674 16.643V16.643C81.44 16.136 82.95 14.342 83.202 11.259V11.259L84.081 11.098 85.062 16.453 84.311 16.59 83.506 14.982C82.238 16.534 80.534 17.507 78.394 17.899V17.899C77.175 18.122 76.04 18.129 74.987 17.921 73.935 17.712 72.998 17.315 72.176 16.73 71.348 16.154 70.65 15.39 70.081 14.439 69.52 13.493 69.125 12.395 68.896 11.143V11.143C68.657 9.839 68.64 8.614 68.845 7.467 69.043 6.321 69.434 5.293 70.016 4.383 70.599 3.48 71.359 2.721 72.295 2.107 73.225 1.501 74.3 1.086 75.518 0.863V0.863C76.381 0.705 77.213 0.678 78.015 0.783 78.824 0.887 79.723 1.131 80.712 1.515ZM96.223 0.12V0.12C97.5 0.189 98.681 0.481 99.766 0.996 100.845 1.503 101.771 2.174 102.544 3.007 103.317 3.833 103.906 4.79 104.31 5.878 104.72 6.967 104.892 8.13 104.825 9.366V9.366C104.761 10.543 104.464 11.637 103.933 12.648 103.409 13.652 102.719 14.516 101.862 15.241 101.005 15.959 100.009 16.509 98.876 16.89 97.748 17.278 96.553 17.438 95.289 17.37V17.37C94.019 17.301 92.844 17.013 91.765 16.505 90.679 16.004 89.749 15.35 88.974 14.543 88.207 13.731 87.614 12.797 87.195 11.741 86.776 10.679 86.599 9.56 86.662 8.383V8.383C86.729 7.146 87.026 6.009 87.551 4.971 88.07 3.933 88.759 3.045 89.617 2.307 90.475 1.562 91.471 0.996 92.605 0.608 93.733 0.213 94.939 0.05 96.223 0.12ZM95.354 16.166V16.166C96.31 16.218 97.178 16.097 97.959 15.804 98.746 15.512 99.427 15.066 100.003 14.467 100.584 13.874 101.047 13.138 101.389 12.258 101.725 11.378 101.923 10.386 101.983 9.283V9.283C102.046 8.113 101.96 7.052 101.723 6.101 101.479 5.149 101.105 4.327 100.599 3.636 100.1 2.945 99.476 2.398 98.726 1.995 97.97 1.599 97.114 1.375 96.158 1.323V1.323C95.195 1.271 94.319 1.401 93.531 1.714 92.736 2.033 92.053 2.509 91.483 3.142 90.905 3.775 90.447 4.551 90.109 5.472 89.764 6.392 89.56 7.437 89.497 8.607V8.607C89.437 9.71 89.53 10.718 89.776 11.63 90.015 12.541 90.388 13.322 90.896 13.974 91.397 14.631 92.026 15.148 92.784 15.524 93.534 15.9 94.391 16.114 95.354 16.166ZM119.516 22.84L118.27 22.451 112.445 6.285 112.358 6.258 109.57 15.173C109.354 15.863 109.208 16.421 109.131 16.846 109.05 17.262 109.048 17.605 109.125 17.875 109.204 18.138 109.367 18.347 109.613 18.501 109.866 18.657 110.211 18.811 110.648 18.962V18.962L110.399 19.757 104.791 18.003 105.04 17.208C105.53 17.347 105.937 17.425 106.261 17.442 106.585 17.459 106.863 17.392 107.093 17.239 107.325 17.08 107.53 16.818 107.707 16.453 107.878 16.085 108.066 15.576 108.269 14.924V14.924L110.92 6.45C111.102 5.868 111.23 5.379 111.305 4.982 111.374 4.582 111.37 4.248 111.293 3.978 111.216 3.708 111.054 3.486 110.807 3.31 110.554 3.133 110.211 2.963 109.778 2.799V2.799L110.027 2.003 114.158 3.296 119.47 18.311 119.556 18.338 122.129 10.114C122.34 9.436 122.485 8.885 122.562 8.46 122.64 8.029 122.641 7.678 122.564 7.409 122.492 7.147 122.329 6.939 122.076 6.782 121.83 6.628 121.485 6.475 121.041 6.322V6.322L121.29 5.526 126.908 7.283 126.659 8.079C126.163 7.938 125.756 7.86 125.438 7.844 125.113 7.827 124.836 7.895 124.606 8.047 124.374 8.206 124.168 8.471 123.989 8.843 123.809 9.215 123.62 9.721 123.42 10.36V10.36ZM135.259 31.953L134.142 31.276 132.366 14.185 132.289 14.138 127.443 22.124C127.068 22.742 126.792 23.248 126.615 23.642 126.437 24.027 126.352 24.36 126.362 24.64 126.376 24.914 126.484 25.156 126.686 25.365 126.894 25.577 127.192 25.809 127.58 26.06V26.06L127.147 26.773 122.124 23.725 122.557 23.012C122.999 23.265 123.375 23.438 123.686 23.533 123.997 23.627 124.282 23.628 124.542 23.535 124.805 23.437 125.067 23.231 125.327 22.919 125.581 22.603 125.886 22.154 126.24 21.57V21.57L130.846 13.979C131.162 13.458 131.404 13.014 131.573 12.646 131.735 12.275 131.812 11.949 131.802 11.669 131.792 11.389 131.688 11.134 131.49 10.904 131.287 10.671 130.995 10.424 130.614 10.161V10.161L131.046 9.448 134.747 11.694 136.3 27.546 136.378 27.592 140.848 20.225C141.217 19.619 141.489 19.118 141.665 18.724 141.845 18.324 141.93 17.984 141.92 17.704 141.913 17.433 141.805 17.191 141.597 16.979 141.394 16.77 141.096 16.538 140.703 16.284V16.284L141.135 15.571 146.167 18.624 145.734 19.337C145.287 19.081 144.91 18.907 144.605 18.816 144.295 18.722 144.009 18.721 143.749 18.814 143.486 18.912 143.222 19.12 142.959 19.438 142.695 19.756 142.39 20.201 142.043 20.774V20.774ZM151.82 25.557L147.488 30.085C148.054 30.627 148.563 31.049 149.015 31.352 149.462 31.65 149.868 31.835 150.235 31.907 150.605 31.975 150.953 31.941 151.277 31.806 151.595 31.666 151.905 31.439 152.206 31.125V31.125L152.758 31.652 148.634 35.963 148.082 35.436C148.383 35.121 148.601 34.806 148.736 34.491 148.866 34.17 148.892 33.829 148.813 33.466 148.733 33.094 148.537 32.684 148.224 32.236 147.921 31.788 147.474 31.282 146.884 30.717V30.717L143.468 34.287C143.134 34.636 142.9 34.963 142.765 35.269 142.634 35.58 142.604 35.903 142.673 36.237 142.746 36.577 142.922 36.935 143.201 37.312 143.484 37.695 143.872 38.122 144.366 38.594V38.594C144.927 39.131 145.438 39.546 145.899 39.838 146.365 40.136 146.819 40.315 147.261 40.377 147.712 40.438 148.163 40.387 148.614 40.226 149.07 40.069 149.573 39.809 150.124 39.447V39.447L150.719 40.016 147.509 42.907 137.697 33.52 138.273 32.918C138.65 33.26 138.978 33.513 139.256 33.677 139.534 33.842 139.796 33.921 140.042 33.916 140.289 33.91 140.545 33.812 140.81 33.622 141.071 33.426 141.378 33.145 141.729 32.777V32.777L148.77 25.418C149.121 25.051 149.389 24.737 149.573 24.477 149.752 24.213 149.848 23.962 149.862 23.725 149.875 23.488 149.801 23.245 149.64 22.998 149.473 22.746 149.232 22.451 148.917 22.112V22.112L149.493 21.51 158.623 30.244 156.101 33.155 155.55 32.628C155.89 32.147 156.117 31.706 156.231 31.306 156.345 30.896 156.355 30.493 156.261 30.097 156.162 29.706 155.955 29.299 155.637 28.875 155.315 28.447 154.886 27.975 154.349 27.462V27.462L152.346 25.545C152.167 25.374 151.991 25.378 151.82 25.557ZM168.624 46.292L169.962 45.842 170.311 46.345 166.283 49.368 165.826 48.708C166.699 47.711 167.175 46.628 167.252 45.458 167.33 44.289 166.999 43.17 166.259 42.102V42.102C165.752 41.37 165.154 40.819 164.466 40.449 163.779 40.069 163.029 39.868 162.215 39.846 161.401 39.823 160.533 39.976 159.612 40.305 158.686 40.637 157.733 41.143 156.753 41.822V41.822C154.821 43.16 153.617 44.59 153.139 46.11 152.661 47.631 152.948 49.15 154 50.669V50.669C155.602 52.981 157.859 53.617 160.771 52.576V52.576L161.281 53.311 156.806 56.411 156.371 55.784 157.505 54.387C155.568 53.872 153.98 52.72 152.74 50.932V50.932C152.035 49.913 151.56 48.882 151.317 47.837 151.073 46.792 151.049 45.774 151.243 44.785 151.427 43.793 151.836 42.842 152.467 41.932 153.098 41.031 153.936 40.218 154.981 39.494V39.494C156.071 38.738 157.181 38.218 158.31 37.932 159.436 37.641 160.534 37.573 161.603 37.728 162.666 37.887 163.67 38.267 164.615 38.867 165.551 39.465 166.372 40.273 167.077 41.291V41.291C167.577 42.012 167.944 42.759 168.179 43.533 168.418 44.313 168.566 45.232 168.624 46.292ZM178.585 65.949L174.786 67.703 174.455 66.873C175.022 66.596 175.472 66.305 175.804 66 176.136 65.694 176.36 65.36 176.474 64.997 176.587 64.627 176.605 64.213 176.53 63.753 176.457 63.299 176.303 62.78 176.07 62.195V62.195C175.872 61.697 175.702 61.3 175.562 61.003 175.422 60.706 175.291 60.487 175.171 60.348 175.05 60.208 174.946 60.128 174.858 60.105 174.763 60.085 174.654 60.1 174.529 60.15V60.15L163.662 64.487C163.233 64.658 162.875 64.837 162.589 65.023 162.303 65.209 162.096 65.432 161.969 65.692 161.851 65.956 161.807 66.279 161.838 66.664 161.877 67.052 162.004 67.531 162.217 68.102V68.102L161.443 68.411 158.379 60.734 159.153 60.425C159.394 60.992 159.634 61.43 159.872 61.738 160.119 62.051 160.375 62.258 160.64 62.362 160.914 62.469 161.218 62.492 161.554 62.43 161.887 62.362 162.268 62.242 162.698 62.071V62.071L173.565 57.734C173.689 57.684 173.78 57.622 173.837 57.549 173.886 57.472 173.91 57.351 173.909 57.186 173.908 57.02 173.865 56.806 173.782 56.544 173.699 56.281 173.571 55.933 173.397 55.497V55.497C173.186 54.969 172.971 54.485 172.753 54.046 172.528 53.609 172.254 53.264 171.929 53.012 171.599 52.762 171.19 52.615 170.704 52.571 170.218 52.527 169.612 52.643 168.886 52.918V52.918L168.588 52.172 172.468 50.623Z" fill="#000000" data-fill-palette-color="primary"></path><path d="M6.662 92.528c0-1.079 0.875-1.954 1.955-1.954 1.079 0 1.954 0.875 1.954 1.954 0 1.079-0.875 1.954-1.954 1.954-1.079 0-1.954-0.875-1.955-1.954zM169.374 92.528c0-1.079 0.875-1.954 1.954-1.954 1.079 0 1.954 0.875 1.954 1.954 0 1.079-0.875 1.954-1.954 1.954-1.079 0-1.954-0.875-1.954-1.954z" fill="#000000" data-fill-palette-color="primary"></path></g></svg></g></svg></g></svg></g></svg></g></svg></g></svg></g><defs></defs></svg><rect width="320" height="360" fill="none" stroke="none" visibility="hidden"></rect></g></svg></g></svg>